<svg width="128" height="128" viewBox="0 0 128 128" fill="none" xmlns="http://www.w3.org/2000/svg">
<path d="M50.0799 114.363C48.6482 117.206 44.6126 117.366 42.9461 114.654C31.746 96.4297 19.0685 79.1955 6.38702 61.9743C5.20936 60.3751 5.38662 58.1535 6.80278 56.7611L8.97876 54.6215C10.3904 53.2335 12.6061 53.0896 14.1854 54.2834L38.8062 72.8945C40.4431 74.1318 42.7525 73.9243 44.15 72.422C67.2185 47.6233 83.1899 32.6851 116.23 12.4969C116.757 12.1749 117.372 12 117.989 12C121.085 12 122.559 15.8504 120.298 17.9644C88.2432 47.9318 68.6898 77.4119 50.0799 114.363Z" fill="url(#paint0_linear_3484_1874)"/>
<defs>
<linearGradient id="paint0_linear_3484_1874" x1="63.5009" y1="12" x2="63.5009" y2="116.595" gradientUnits="userSpaceOnUse">
<stop stop-color="#70BD2A"/>
<stop offset="1" stop-color="#4E8C25"/>
</linearGradient>
</defs>
</svg>
