<svg width="128" height="128" viewBox="0 0 128 128" fill="none" xmlns="http://www.w3.org/2000/svg">
<path d="M50.0799 114.363C48.6483 117.206 44.6127 117.366 42.9462 114.654C31.7461 96.4297 19.0686 79.1955 6.38711 61.9743C5.20945 60.3751 5.38671 58.1535 6.80287 56.7611L8.97885 54.6215C10.3905 53.2335 12.6062 53.0896 14.1855 54.2834L38.8063 72.8945C40.4432 74.1318 42.7525 73.9243 44.1501 72.422C67.2185 47.6233 83.19 32.6851 116.23 12.4969C116.757 12.1749 117.372 12 117.99 12C121.085 12 122.559 15.8504 120.298 17.9644C88.2433 47.9318 68.6899 77.4119 50.0799 114.363Z" fill="url(#paint0_linear_3484_2103)"/>
<defs>
<linearGradient id="paint0_linear_3484_2103" x1="63.501" y1="12" x2="63.5009" y2="116.595" gradientUnits="userSpaceOnUse">
<stop stop-color="#70BD2A"/>
<stop offset="1" stop-color="#4E8C25"/>
</linearGradient>
</defs>
</svg>
